<mxfile host="app.diagrams.net" modified="2023-09-15T14:12:53.559Z" agent="Mozilla/5.0 (X11; Linux x86_64) AppleWebKit/537.36 (KHTML, like Gecko) Chrome/116.0.0.0 Safari/537.36" version="21.6.5" etag="c-fPN1kri_2Zs-CRByef" type="github">
  <diagram name="Page-1" id="nXL7G_whf1Z8z4JnQax-">
    <mxGraphModel>
      <root>
        <mxCell id="0" />
        <mxCell id="1" parent="0" />
      </root>
    </mxGraphModel>
  </diagram>
</mxfile>
